<?xml version="1.0" encoding="UTF-8" standalone="no"?>
<!-- Created with Inkscape (http://www.inkscape.org/) -->

<svg
   width="1395"
   height="401"
   viewBox="0 0 369.09374 106.09792"
   version="1.1"
   id="svg1"
   xml:space="preserve"
   inkscape:version="1.3.2 (091e20ef0f, 2023-11-25)"
   sodipodi:docname="project_thumb.svg"
   inkscape:export-filename="project_thumb.png"
   inkscape:export-xdpi="96"
   inkscape:export-ydpi="96"
   xmlns:inkscape="http://www.inkscape.org/namespaces/inkscape"
   xmlns:sodipodi="http://sodipodi.sourceforge.net/DTD/sodipodi-0.dtd"
   xmlns:xlink="http://www.w3.org/1999/xlink"
   xmlns="http://www.w3.org/2000/svg"
   xmlns:svg="http://www.w3.org/2000/svg"><sodipodi:namedview
     id="namedview1"
     pagecolor="#ffffff"
     bordercolor="#000000"
     borderopacity="0.25"
     inkscape:showpageshadow="2"
     inkscape:pageopacity="0.0"
     inkscape:pagecheckerboard="0"
     inkscape:deskcolor="#d1d1d1"
     inkscape:document-units="px"
     inkscape:zoom="0.94483659"
     inkscape:cx="697.47511"
     inkscape:cy="200.56378"
     inkscape:window-width="2560"
     inkscape:window-height="1371"
     inkscape:window-x="0"
     inkscape:window-y="32"
     inkscape:window-maximized="1"
     inkscape:current-layer="layer1"
     showguides="false" /><defs
     id="defs1"><linearGradient
       id="linearGradient20"
       inkscape:collect="always"><stop
         style="stop-color:#00112b;stop-opacity:1"
         offset="0"
         id="stop20" /><stop
         style="stop-color:#162d50;stop-opacity:1"
         offset="1"
         id="stop21" /></linearGradient><linearGradient
       inkscape:collect="always"
       xlink:href="#linearGradient20"
       id="linearGradient21"
       x1="179.31984"
       y1="-10.592339"
       x2="230.41"
       y2="112.11182"
       gradientUnits="userSpaceOnUse" /></defs><g
     inkscape:label="Camada 1"
     inkscape:groupmode="layer"
     id="layer1"><rect
       style="fill:url(#linearGradient21);fill-opacity:1;stroke-width:2.61194;stroke-linecap:round"
       id="rect16"
       width="369.09375"
       height="106.09792"
       x="3.9900235e-07"
       y="-3.1913758e-06"
       ry="4.5225897" /><g
       id="g1"
       transform="matrix(3.6109524,0,0,3.6109524,155.65926,7.7396631)"><circle
         fill="#f9548f"
         cx="8"
         cy="8"
         r="8"
         id="circle1" /><path
         style="fill:#ffffff"
         d="M 3.0235,6.0453 C 3.0897,5.8474 3.1015,5.7286 3.1268,5.6134 2.9444,5.8414 3.0427,5.89 3.0235,6.0453 M 3.3606,4.6696 C 3.3935,4.9666 3.132,5.0824 3.4184,4.8862 3.5722,4.5478 3.3586,4.7926 3.3606,4.6696 M 8.366,2.0687 C 8.5086,2.0178 8.7161,2.0407 8.868,2.0072 8.6705,2.0233 8.4742,2.033 8.2804,2.0571 l 0.085637,0.01158 m 4.5807,5.548 -0.0309,0.076131 c -0.057,0.3942 -0.18,0.7842 -0.368,1.146 0.208,-0.3816 0.342,-0.7991 0.399,-1.2221 m -5.7974,1.2318 c -0.0737,-0.0794 -0.1165,-0.1748 -0.1654,-0.2701 0.0466,0.167 0.1419,0.3106 0.2304,0.4568 l -0.065,-0.1866 m -0.3275,0.0125 -0.0298,0.1444 c 0.1387,0.1841 0.2488,0.3835 0.4256,0.5269 -0.1273,-0.2426 -0.2217,-0.3428 -0.3958,-0.6713 m 1.7265,-6.6325 -0.079386,0.016139 0.073761,-0.0066 0.00563,-0.00954 m -0.2244,-0.061 c 0.1126,0.019585 0.24327,0.034759 0.22449,0.061096 0.12377,-0.026579 0.15127,-0.050578 -0.22441,-0.061078 m 2.3484,5.0723 c 0.02568,-0.37114 -0.07465,-0.25364 -0.10837,-0.11227 0.03923,0.020135 0.07041,0.26177 0.10837,0.11227 m -0.41756,1.0626 c 0.126,-0.1695 0.218,-0.3549 0.25,-0.5466 -0.029,0.1365 -0.104,0.2545 -0.176,0.3791 -0.3938,0.2426 -0.037,-0.144 0,-0.2911 -0.4236,0.5217 -0.058,0.3128 -0.074,0.4586 m -1.1313,0.2754 c -0.21081,0.0027 0.03965,0.10592 0.31495,0.14744 0.076336,-0.058198 0.14491,-0.11668 0.20644,-0.17378 -0.17116,0.040967 -0.34556,0.041927 -0.52138,0.026345 m -6.0996,-2.5325 c 0.0662,-0.1982 0.078,-0.3171 0.1033,-0.432 -0.1825,0.2281 -0.0841,0.2768 -0.1033,0.432 m 0.3369,-1.3757 c 0.0329,0.2971 -0.2285,0.4126 0.0579,0.2164 0.1538,-0.3384 -0.0598,-0.0933 -0.0579,-0.2164 m 5.005,-2.6015 C 8.508342,2.017339 8.716182,2.040235 8.867732,2.006719 8.670472,2.022856 8.474202,2.032511 8.280472,2.056647 L 8.36598,2.068232 m 4.5809,5.5485 -0.0309,0.076134 c -0.057,0.3943 -0.18,0.7843 -0.368,1.1461 0.208,-0.3816 0.342,-0.7991 0.399,-1.2221 m -5.7971,1.2316 c -0.0734,-0.0794 -0.1165,-0.1749 -0.1654,-0.2698 0.0466,0.1671 0.142,0.3106 0.2305,0.4568 l -0.0651,-0.187 m -0.3275,0.0124 -0.0298,0.1444 c 0.1387,0.1842 0.2488,0.3836 0.4256,0.527 -0.1273,-0.2426 -0.2217,-0.3428 -0.3958,-0.6714 m 1.7263,-6.6326 -0.079158,0.016137 0.073796,-0.00662 0.00536,-0.00952 m 3.144,5.1659 c 0.01163,0.31162 -0.09108,0.46305 -0.18398,0.73084 l -0.16705,0.082935 c -0.13656,0.26493 0.01356,0.1682 -0.08424,0.37883 -0.21343,0.18922 -0.64678,0.59191 -0.78549,0.62878 -0.10142,-0.00228 0.0686,-0.11944 0.09083,-0.16523 -0.286,0.1956 -0.229,0.2936 -0.6657,0.4127 l -0.0127,-0.0285 c -1.0762,0.5056 -2.5713,-0.4962 -2.5517,-1.8629 -0.0114,0.0867 -0.0327,0.065 -0.0565,0.0998 -0.0555,-0.7031 0.3254,-1.4093 0.9677,-1.698 0.6283,-0.3104 1.3649,-0.1832 1.8149,0.2359 -0.2474,-0.3233 -0.7395,-0.666 -1.3223,-0.6343 -0.5712,0.0093 -1.1057,0.3716 -1.2839,0.7651 -0.2925,0.1838 -0.3266,0.709 -0.454,0.8051 -0.17171,1.2589 0.3226,1.8025 1.1589,2.4425 0.13126,0.088479 0.036949,0.10203 0.05452,0.16936 -0.2778,-0.1298 -0.532,-0.3259 -0.7413,-0.5659 0.1111,0.1621 0.2309,0.3197 0.3858,0.4436 -0.2621,-0.0884 -0.6121,-0.6337 -0.714,-0.6559 0.4515,0.8071 1.8317,1.4152 2.5548,1.1132 -0.3346,0.013 -0.7595,0.007 -1.1352,-0.1314 -0.1583,-0.0812 -0.3726,-0.249 -0.3342,-0.2803 0.98658,0.36773 2.0054,0.27835 2.8588,-0.40462 0.21731,-0.16897 0.45452,-0.45621 0.52312,-0.46009 -0.10323,0.15503 0.0177,0.074554 -0.06163,0.21141 0.21602,-0.34838 -0.09419,-0.14188 0.22351,-0.6016 l 0.11731,0.16123 c -0.04392,-0.28944 0.35981,-0.64048 0.31873,-1.0979 0.09263,-0.13981 0.10323,0.15066 0.005,0.47234 0.1363,-0.3569 0.03605,-0.4143 0.07093,-0.70894 0.0376,0.099057 0.08759,0.20418 0.11305,0.30879 -0.08889,-0.34503 0.09083,-0.58082 0.13553,-0.78141 -0.04418,-0.019349 -0.13708,0.15246 -0.15852,-0.25487 0.0033,-0.17697 0.04949,-0.092739 0.06718,-0.13633 -0.03463,-0.019991 -0.12597,-0.15568 -0.1814,-0.41584 0.03992,-0.06127 0.10749,0.15852 0.16227,0.16742 -0.03527,-0.20677 -0.09586,-0.36451 -0.09845,-0.52328 -0.1602,-0.33407 -0.05672,0.044633 -0.18643,-0.14343 -0.17054,-0.53064 0.14135,-0.12318 0.16253,-0.36412 0.25814,0.37341 0.40529,0.95259 0.47312,1.1923 -0.05168,-0.2924 -0.13501,-0.57578 -0.23695,-0.84987 0.07868,0.033149 -0.12648,-0.60148 0.10219,-0.18122 -0.24504,-0.89571 -1.0445,-1.7327 -1.7803,-2.1254 0.09001,0.082197 0.20378,0.18533 0.16315,0.20159 -0.366,-0.2174 -0.302,-0.2346 -0.355,-0.3264 -0.298,-0.1211 -0.317,0.0099 -0.515,3e-4 -0.5615,-0.2978 -0.6697,-0.2661 -1.1866,-0.4524 l 0.023522,0.1099 c -0.3722,-0.1239 -0.4337,0.0467 -0.836,2e-4 -0.0244,-0.0189 0.129,-0.0691 0.2553,-0.0873 -0.3599,0.0475 -0.3431,-0.0709 -0.6953,0.013 0.0867,-0.0607 0.1787,-0.1011 0.2712,-0.1527 -0.2934,0.0178 -0.7008,0.1705 -0.5751,0.0315 -0.4787,0.2133 -1.3289,0.5127 -1.806,0.9594 l -0.015,-0.1001 c -0.2186,0.2619 -0.9534,0.7824 -1.0119,1.1221 l -0.0586,0.0135 c -0.1135,0.1923 -0.1873,0.4102 -0.2775,0.6079 -0.1487,0.2532 -0.2181,0.0975 -0.1969,0.1372 -0.2926,0.5923 -0.4382,1.09 -0.5637,1.4983 0.0894,0.1335 0.0023,0.8039 0.036,1.3403 -0.1468,2.6498 1.8627,5.2228 4.0593,5.8158 0.3219,0.116 0.8006,0.112 1.2079,0.123 -0.4804,-0.137 -0.5424,-0.073 -1.0106,-0.236 -0.3376,-0.159 -0.4115,-0.34 -0.6507,-0.547 l 0.094701,0.16703 c -0.469,-0.166 -0.2728,-0.205 -0.6545,-0.326 l 0.1012,-0.131 c -0.1513,-0.012 -0.4019,-0.256 -0.4707,-0.392 l -0.16641,0.0066 c -0.1997,-0.246 -0.3063,-0.423 -0.2984,-0.561 l -0.0538,0.096 c -0.0608,-0.105 -0.7352,-0.924 -0.3854,-0.733 -0.065,-0.059 -0.1514,-0.096 -0.2451,-0.266 l 0.071192,-0.08113 c -0.1681,-0.217 -0.3098,-0.494 -0.2989,-0.586 0.0898,0.121 0.152,0.143 0.2138,0.164 -0.4252,-1.053 -0.4491,-0.058 -0.7709,-1.0718 l 0.067953,-0.0054 c -0.0521,-0.0788 -0.0841,-0.1638 -0.1259,-0.2475 l 0.0297,-0.2948 c -0.3059,-0.3533 -0.0854,-1.5023 -0.0411,-2.1323 0.0303,-0.2562 0.2554,-0.5292 0.426,-0.957 l -0.1041,-0.0177 c 0.1992,-0.3468 1.1372,-1.393 1.5718,-1.3393 0.2104,-0.2639 -0.0419,-0.001 -0.0831,-0.0673 0.4624,-0.4776 0.6078,-0.3374 0.9198,-0.4234 0.3363,-0.1993 -0.2888,0.0779 -0.1294,-0.076 0.5818,-0.1482 0.4122,-0.3372 1.171,-0.4124 0.0801,0.0454 -0.1857,0.0702 -0.2524,0.1291 0.4845,-0.2368 1.5335,-0.1827 2.2152,0.1313 0.7904,0.3691 1.6784,1.4594 1.7144,2.4852 l 0.03992,0.010704 c -0.02015,0.40785 0.06253,0.87951 -0.081,1.3126 l 0.09703,-0.20521 m -3.3689,-5.2267 c 0.1126,0.019585 0.24326,0.034757 0.22449,0.0611 0.1236,-0.026619 0.1514,-0.050618 -0.22449,-0.0611 m 2.3491,5.0727 c 0.02568,-0.37115 -0.07464,-0.25364 -0.10837,-0.11227 0.03923,0.020137 0.07041,0.26178 0.10837,0.11227 m -0.418,1.0626 c 0.126,-0.1695 0.218,-0.3549 0.25,-0.5466 -0.029,0.1365 -0.104,0.2544 -0.176,0.3791 -0.3938,0.2426 -0.037,-0.144 0,-0.2911 -0.4236,0.5217 -0.058,0.3128 -0.074,0.4586 m -1.1311,0.2757 c -0.2108,0.0027 0.0396,0.1059 0.3149,0.1474 0.0763,-0.0582 0.1449,-0.1167 0.2064,-0.1738 -0.1711,0.041 -0.3455,0.042 -0.5213,0.0264"
         id="path1" /></g><g
       id="g20"
       transform="matrix(0.9473323,0,0,0.9473323,23.423009,9.8530367)"><g
         id="g2"
         transform="matrix(1.0929074,0,0,1.0929074,98.741617,77.86333)"><rect
           style="fill:#2c4865"
           width="16"
           height="16"
           x="0"
           y="0"
           ry="3.2"
           id="rect1" /><path
           style="fill:#e9ff61"
           d="m 5.1315468,11.999431 c 0.1305464,0.0038 0.2771251,-0.0116 0.4236647,-0.04125 0.4335521,-0.09039 0.8017916,-0.278124 1.084786,-0.610967 0.1721053,-0.20297 0.3167933,-0.422932 0.4415093,-0.654272 C 7.2281252,10.420361 7.3506352,10.136361 7.4574672,9.84888 7.5880136,9.50114 7.6988636,9.1458028 7.7841872,8.7866476 7.8315764,8.5854372 7.7782792,8.4593812 7.5446422,8.3900652 7.2478212,8.3017364 6.948794,8.222764 6.6439763,8.1587252 6.1393212,8.0534044 5.6306475,7.9858476 5.1118111,8.0025028 4.9652324,8.0081188 4.8189687,8.0230868 4.6742807,8.047528 4.2545947,8.1171808 3.8983695,8.3014368 3.607418,8.5927356 3.1104443,9.0890624 2.9127735,9.681279 3.0353231,10.356322 c 0.1761232,0.964584 1.0748984,1.650706 2.0962237,1.643109 z"
           id="path1-6" /><path
           style="fill:#00d1f8"
           d="m 6.0007508,5.0505804 c -0.0056,0.1429123 0.020516,0.2991408 0.063821,0.4554069 0.082508,0.2973195 0.2192516,0.5697517 0.3805012,0.8270846 0.367334,0.5851925 0.8303436,1.0862009 1.3327052,1.5513578 0.041142,0.038242 0.090118,0.070527 0.1425624,0.095148 0.052519,0.026558 0.1049632,0.026558 0.1592352,0.0038 0.052444,-0.022762 0.099368,-0.055162 0.1387576,-0.097234 C 8.3926756,7.7109154 8.5650032,7.5354147 8.73002,7.3542989 8.9624016,7.0969659 9.1837048,6.832235 9.3842688,6.548232 9.56622,6.2909368 9.7291856,6.0202496 9.8490316,5.726762 9.968878,5.435057 10.027141,5.1341714 9.9877892,4.8178071 9.9221776,4.2957432 9.7029632,3.8534249 9.3111228,3.5065965 8.8478148,3.0971705 8.3081528,2.9332405 7.700828,3.0245573 6.7130392,3.1733876 5.9969464,4.0576827 6.0007508,5.0505185 Z"
           id="path2" /><path
           style="fill:#ff4b4b"
           d="m 10.868453,11.999431 c -0.130546,0.0038 -0.277125,-0.0116 -0.423664,-0.04125 C 10.011236,11.867798 9.6429972,11.680061 9.3600027,11.347218 9.1878975,11.144248 9.0432095,10.924286 8.9184933,10.692946 8.7718751,10.420361 8.649365,10.136361 8.5425328,9.84888 8.4119864,9.50114 8.3011364,9.1458028 8.2158128,8.7866476 8.1684236,8.5854372 8.2217208,8.4593812 8.4553578,8.3900652 8.7521789,8.3017364 9.0512063,8.222764 9.3560239,8.1587252 9.8606802,8.0534044 10.369352,7.9858476 10.888189,8.0025028 c 0.14658,0.00562 0.292842,0.020584 0.43753,0.045025 0.419688,0.069653 0.775911,0.2539088 1.066865,0.5452076 0.496972,0.4963268 0.694642,1.0885436 0.572093,1.7635866 -0.176123,0.964584 -1.074898,1.650706 -2.096224,1.643109 z"
           id="path3" /></g><g
         id="g3"
         transform="matrix(0.9921875,0,0,0.9921875,124.72528,78.669089)"><rect
           style="fill:#419d45"
           width="16"
           height="16"
           x="0"
           y="0"
           rx="1"
           ry="1"
           id="rect1-2" /><g
           style="fill:#f8c44e"
           id="g6"><rect
             width="2"
             height="4"
             x="1"
             y="12"
             id="rect2" /><rect
             width="2"
             height="4"
             x="4"
             y="12"
             id="rect3" /><rect
             width="2"
             height="4"
             x="7"
             y="12"
             id="rect4" /><rect
             width="2"
             height="4"
             x="10"
             y="12"
             id="rect5" /><rect
             width="2"
             height="4"
             x="13"
             y="12"
             id="rect6" /></g><rect
           style="fill:#4e4e4e"
           width="6"
           height="6"
           x="5"
           y="3"
           rx="1.2"
           ry="1.2"
           id="rect7" /><g
           style="fill:#b7b7b7"
           id="g16"><rect
             width="1"
             height="2"
             x="6"
             y="1"
             id="rect8" /><rect
             width="1"
             height="2"
             x="9"
             y="1"
             id="rect9" /><rect
             width="1"
             height="2"
             x="6"
             y="9"
             id="rect10" /><rect
             width="1"
             height="2"
             x="9"
             y="9"
             id="rect11" /><g
             transform="rotate(90)"
             id="g15"><rect
               width="1"
               height="2"
               x="4"
               y="-13"
               id="rect12" /><rect
               width="1"
               height="2"
               x="7"
               y="-13"
               id="rect13" /><rect
               width="1"
               height="2"
               x="4"
               y="-5"
               id="rect14" /><rect
               width="1"
               height="2"
               x="7"
               y="-5"
               id="rect15" /></g></g></g><g
         id="g4"
         transform="matrix(0.43716146,0,0,0.43716146,147.34881,75.896133)"><circle
           style="opacity:0.2"
           cx="24"
           cy="25"
           r="20"
           id="circle1-9" /><path
           style="fill:#dd4d3e"
           d="m 23.969,4 c -7.006,0 -13.131,3.592 -16.694,9.026 -0.126,8.143 5.048,10.98 8.799,15.242 -0.69,-1.274 -1.092,-2.722 -1.092,-4.279 0,-4.983 4.039,-6.442 8.987,-6.996 L 41.817,14.994 C 38.541,8.459 31.799,4 23.968,4 Z"
           id="path1-1" /><path
           style="fill:#109f5b"
           d="m 6.695,34.042 c 3.503,6.073 9.674,9.587 16.157,9.958 6.913,-3.814 10.577,-8.663 8.787,-15.249 -0.758,1.236 -1.809,2.308 -3.156,3.086 -2.141,1.237 -4.123,-0.063 -6.33,-0.643 -2.237,-0.587 -4.693,-0.477 -5.946,-2.65 L 7.282,13.072 C 3.265,19.181 2.779,27.254 6.694,34.042 Z"
           id="path2-2" /><path
           style="fill:#ffce41"
           d="m 41.319,33.987 c 3.503,-6.073 3.458,-13.179 0.537,-18.984 L 24.269,15.01 c 1.448,0.039 2.901,0.414 4.248,1.193 2.304,1.332 2.088,3.963 2.597,6.368 0.444,2.095 1.851,3.911 0.692,5.92 l -8.923,15.472 c 7.293,0.428 14.521,-3.187 18.436,-9.976 z"
           id="path3-7" /><path
           style="opacity:0.2;fill:#ffffff"
           d="M 24,4 A 20,20 0 0 0 4,24 20,20 0 0 0 4.0215,24.582 20,20 0 0 1 24,5 20,20 0 0 1 43.979,24.418 20,20 0 0 0 44,24 20,20 0 0 0 24,4 Z"
           id="path4" /><circle
           style="opacity:0.2"
           cx="24"
           cy="25"
           r="9"
           id="circle4" /><circle
           style="fill:#ffffff"
           cx="24"
           cy="24"
           r="9"
           id="circle5" /><circle
           style="fill:#4587f3"
           cx="24"
           cy="24"
           r="7"
           id="circle6" /></g><g
         id="g5"
         transform="matrix(1.0929074,0,0,1.0929074,173.72886,77.86333)"><rect
           style="fill:#cccccc"
           width="5"
           height="4.8000002"
           x="6"
           y="11.2"
           rx="0.35699999"
           ry="0.40000001"
           id="rect1-0" /><rect
           style="fill:#929292"
           width="1.5"
           height="1"
           x="6.5"
           y="14"
           id="rect2-9" /><path
           style="fill:#1de9b6"
           d="M 7.2727272,0 C 5.4596364,0 4,1.4495 4,3.25 V 4.0625 6.5 12.1875 C 4,12.637624 4.364909,13 4.8181818,13 H 12.181818 C 12.63509,13 13,12.637624 13,12.1875 V 6.5 4.0625 3.25 C 13,1.4495 11.540364,0 9.7272728,0 Z"
           id="path2-3" /><path
           style="fill:none;stroke:#07bd9f;stroke-width:2;stroke-linecap:round;stroke-linejoin:round"
           d="m 10,3 v 7"
           id="path3-6" /><path
           style="fill:none;stroke:#07bd9f;stroke-width:2;stroke-linecap:round;stroke-linejoin:round"
           d="m 7,3 v 7"
           id="path4-0" /><rect
           style="fill:#929292"
           width="1.5"
           height="1"
           x="9"
           y="14"
           id="rect4-6" /></g><g
         id="g7"
         transform="matrix(1.092932,0,0,1.092932,249.80845,77.863136)"><path
           style="fill:#b091f0"
           d="M 3.6273,6.5259 5,11 h 5 L 9.5,2.0002 c 0,0 -0.3202,-0.9796 -0.5239,-1.64316 C 8.5865,-0.07646 7.9057,-0.12935 7.4707,0.27744 L 4.3844,3.164 C 4.2027,3.3276 4.0789,3.5532 4.0435,3.7966"
           id="path1-2" /><path
           style="fill:#8251e6"
           d="m 8.4291,9.5539 3.9249,3.3051 0.172,-0.283 c 0.681,-1.013 1.159,-1.8 1.403,-2.211 C 14.04,10.179 14.017,9.9397 13.889,9.7673 13.544,9.3116 12.821,8.3241 12.458,7.4703 12.095,6.5901 12.037,5.2232 12.033,4.5597 c 0,-0.2566 -0.079,-0.4999 -0.239,-0.699 L 8.9761,0.35704 C 9.1798,1.0206 9.1729,1.4942 9.049,1.9807 8.9338,2.4318 8.7213,2.8389 8.4956,3.2724 8.4203,3.4183 8.3451,3.5643 8.2697,3.7148 7.973,4.3208 7.7031,5.011 7.6631,5.9311 c -0.0398,0.92 0.1505,2.079 0.766,3.6228 z"
           id="path2-6" /><path
           style="fill:#6135ba"
           d="m 10.224,15.96 c 0.708,0.199 1.425,-0.376 1.522,-1.1 0.085,-0.629 0.258,-1.363 0.608,-2.001 C 11.553,11.142 10.587,10.25 9.5244,9.8514 8.3998,9.4355 7.1053,9.5096 5.8613,9.8105 L 4.928,14.899 c 0.1196,0.062 0.2524,0.097 0.3896,0.106 0,0 0.7615,0.062 1.6735,0.128 0.9121,0.067 2.3207,0.575 3.2329,0.827 z"
           id="path3-1" /><path
           style="fill:#8a61d9"
           d="M 4.928,14.899 C 6.2208,12.28 6.1711,10.372 5.6177,9.0362 5.113,7.7977 4.371,7.0081 3.6273,6.5259 L 3.5608,6.7294 2.0935,10.617 c -0.1773,0.398 -0.0975,0.862 0.208,1.176 l 2.3255,2.894 c 0.0885,0.088 0.186,0.159 0.301,0.212 z"
           id="path4-8" /></g><g
         id="g8"
         transform="matrix(1.0929074,0,0,1.0929074,274.98689,77.86333)"><path
           style="fill:#ea6e41"
           d="M 8.0003245,8 C 7.5360182,7.9999196 7.0716884,8.0984588 6.7280927,8.2947984 L 1.5150755,11.27316 c -0.68719247,0.392679 -0.68655411,1.061291 6.373e-4,1.453971 l 5.2123773,2.97836 c 0.6871918,0.392679 1.8572734,0.392678 2.5444641,0 l 5.2123788,-2.97836 c 0.68719,-0.392678 0.686543,-1.061294 -6.64e-4,-1.453971 L 9.2725564,8.2947984 C 8.9289607,8.0984588 8.4646312,8.0000804 8.0003245,8 Z"
           id="path1-7" /><path
           style="fill:#aed351"
           d="M 8.0003245,3.9999999 C 7.5360182,3.9999195 7.0716884,4.0984587 6.7280927,4.2947983 L 1.5150755,7.2731596 C 0.82788303,7.6658384 0.82852139,8.3344512 1.5157128,8.7271305 l 5.2123773,2.9783605 c 0.6871918,0.392679 1.8572734,0.392678 2.5444641,0 L 14.484933,8.7271305 c 0.68719,-0.3926781 0.686543,-1.0612933 -6.64e-4,-1.4539709 L 9.2725564,4.2947983 C 8.9289607,4.0984587 8.4646312,4.0000803 8.0003245,3.9999999 Z"
           id="path2-9" /><path
           style="fill:#3b9dda"
           d="M 8.0003245,0 C 7.5360182,-8.0400002e-5 7.0716884,0.0984588 6.7280927,0.29479841 L 1.5150755,3.2731595 C 0.82788303,3.6658383 0.82852139,4.3344511 1.5157128,4.7271304 l 5.2123773,2.9783608 c 0.6871918,0.3926784 1.8572734,0.392678 2.5444641,0 L 14.484933,4.7271304 c 0.68719,-0.3926781 0.686543,-1.0612933 -6.64e-4,-1.4539709 L 9.2725564,0.29479841 C 8.9289607,0.0984588 8.4646312,8.0400002e-5 8.0003245,0 Z"
           id="path3-2" /></g><g
         id="g9"
         transform="matrix(1.0929074,0,0,1.0929074,300.16479,77.86333)"><path
           style="fill:#1955aa"
           d="m 16,8 c 0,4.418278 -3.581722,8 -8,8 C 4.2430387,16 1.0909479,13.410242 0.2315224,9.9185199 0.08024257,9.3038918 0.5729328,9.4820042 0.5729328,8.8206875 0.5729328,8.699585 0.00269087,7.7584235 0.00801607,7.6386345 0.19697445,3.3880669 3.7028245,0 8,0 c 4.418278,0 8,3.581722 8,8 z"
           id="path1-0" /><path
           style="fill:#ffffff"
           d="M 7.6,5.6 8.8,8.4 12,8.8 7.2,11.6 7,10 5.2,9.6 Z"
           id="path2-23" /><path
           style="fill:#ffffff"
           d="M 10.5,3 A 3.5,3.5 0 0 0 7,6.5 3.5,3.5 0 0 0 10.5,10 3.5,3.5 0 0 0 14,6.5 3.5,3.5 0 0 0 10.5,3 Z m 0,1.5 a 2,2 0 0 1 2,2 2,2 0 0 1 -2,2 2,2 0 0 1 -2,-2 2,2 0 0 1 2,-2 z m 0,0.5 A 1.5,1.5 0 0 0 9,6.5 1.5,1.5 0 0 0 10.5,8 1.5,1.5 0 0 0 12,6.5 1.5,1.5 0 0 0 10.5,5 Z"
           id="path3-75" /><path
           style="fill:#ffffff"
           d="M 5.5,9 A 2.5,2.5 0 0 0 3,11.5 2.5,2.5 0 0 0 5.5,14 2.5,2.5 0 0 0 8,11.5 2.5,2.5 0 0 0 5.5,9 Z m 0,1 A 1.5000003,1.5000003 0 0 1 7,11.5 1.5000003,1.5000003 0 0 1 5.5,13 1.5000003,1.5000003 0 0 1 4,11.5 1.5000003,1.5000003 0 0 1 5.5,10 Z"
           id="path4-9" /><path
           style="fill:#ffffff"
           d="M 0.02148438,7.5742188 A 8,8 0 0 0 0,8 8,8 0 0 0 0.24414062,9.9335938 L 5.0449219,12.390625 a 1.0001545,1.0001545 0 1 0 0.9101562,-1.78125 z"
           id="path5" /></g><g
         id="g10"
         transform="matrix(0.4265422,0,0,0.4265422,197.95945,76.155449)"><path
           style="opacity:0.2;fill-rule:evenodd"
           d="m 41.605579,5.0134445 c -0.347671,-0.055263 -0.660019,0.1409211 -0.847794,0.3642946 -0.187772,0.2234842 -0.31806,0.5003526 -0.431522,0.8492842 -0.196225,0.6038053 -0.916852,2.8450587 -3.515398,5.0602257 -2.598545,2.21528 -7.079641,5.513266 -14.846173,5.713098 -4.722568,0.05526 -7.979524,-2.373919 -9.862678,-6.100313 -0.46997,-0.929969 -1.154645,-2.663021 -1.154645,-1.5603 v 1.704979 l -0.02398,8.824089 0.04795,0.116163 c 0,0 0.423076,0.939805 -0.02397,2.205995 -0.447052,1.266299 -2.2101007,3.114173 -6.1499287,4.296694 l -0.4816519,0.143132 0.091535,0.507205 c 0.218531,1.228721 1.0896084,2.488058 2.3755623,3.777347 1.2859536,1.289179 3.0077313,2.5935 5.0126543,3.772705 4.009845,2.358411 9.145709,4.222105 14.135686,4.3092 4.989975,0.08732 9.872211,-1.657674 13.102642,-6.490657 3.230433,-4.832874 4.805899,-14.056457 3.515396,-26.069452 h -0.0022 C 42.506039,6.1073233 42.433296,5.8257024 42.302992,5.5788971 42.172687,5.3322023 41.95325,5.0774391 41.605579,5.0223971 Z"
           id="path1-22" /><path
           style="fill:#645b44;fill-rule:evenodd"
           d="m 41.605579,4.0134447 c -0.347671,-0.055263 -0.660019,0.1409211 -0.847794,0.3642946 -0.187772,0.2234842 -0.31806,0.5003526 -0.431522,0.8492842 -0.196225,0.6038053 -0.916852,2.8450585 -3.515398,5.0602255 -2.598545,2.21528 -7.079641,5.513266 -14.846173,5.713098 -4.722568,0.05526 -7.979524,-2.373919 -9.862678,-6.100313 -0.46997,-0.929969 -1.154645,-2.6630212 -1.154645,-1.5603 v 1.704979 l -0.02398,8.824089 0.04795,0.116163 c 0,0 0.423076,0.939805 -0.02397,2.205995 -0.447052,1.266299 -2.2101007,3.114173 -6.1499287,4.296694 l -0.4816519,0.143132 0.091535,0.507205 c 0.218531,1.228721 1.0896084,2.488058 2.3755623,3.777347 1.2859536,1.289179 3.0077313,2.5935 5.0126543,3.772705 4.009845,2.358411 9.145709,4.222105 14.135686,4.3092 4.989975,0.08732 9.872211,-1.657674 13.102642,-6.490657 3.230433,-4.832874 4.805899,-14.056457 3.515396,-26.069452 h -0.0022 C 42.506039,5.1073235 42.433296,4.8257026 42.302992,4.5788973 42.172687,4.3322025 41.95325,4.0774393 41.605579,4.0223973 Z"
           id="path2-8" /><path
           style="opacity:0.1;fill:#ffffff;fill-rule:evenodd"
           d="m 41.605468,4.0140187 c -0.347671,-0.055263 -0.659882,0.1399077 -0.847657,0.3632812 -0.187772,0.2234842 -0.318178,0.5006778 -0.43164,0.8496094 -0.196225,0.6038053 -0.917079,2.8453797 -3.515625,5.0605467 -2.598545,2.21528 -7.079171,5.513059 -14.845703,5.712891 -4.722568,0.05526 -7.980127,-2.373215 -9.863282,-6.099609 C 11.631592,8.970769 10.947265,7.2374698 10.947265,8.340191 v 1 c 0,-1.102721 0.684327,0.630578 1.154296,1.560547 1.883155,3.726394 5.140714,6.154869 9.863282,6.099609 7.766532,-0.199832 12.247158,-3.497611 14.845703,-5.712891 2.598546,-2.215167 3.3194,-4.4567414 3.515625,-5.0605467 0.113462,-0.3489316 0.243868,-0.6261252 0.43164,-0.8496094 0.187775,-0.2233735 0.499986,-0.4185443 0.847657,-0.3632812 v 0.00781 c 0.347671,0.055042 0.56696,0.3099458 0.697265,0.5566406 0.130304,0.2468053 0.203116,0.5295644 0.244141,0.859375 h 0.002 c 0.294173,2.7383862 0.432686,5.3224227 0.44336,7.7519537 0.02981,-2.712887 -0.108595,-5.6357065 -0.44336,-8.7519537 h -0.002 C 42.505849,5.1080362 42.433037,4.8252771 42.302733,4.5784718 42.172428,4.331777 41.953139,4.0768732 41.605468,4.0218312 v -0.00781 z m -30.658203,6.0312503 -0.02344,8.824219 0.002,0.0059 0.02149,-7.830078 v -1 z m 0.160156,10.478516 c -0.03119,0.210104 -0.07648,0.430972 -0.160156,0.667968 -0.447052,1.266299 -2.2105627,3.114354 -6.1503907,4.296875 l -0.4804688,0.142578 0.091797,0.50586 c 0.025712,0.144571 0.062076,0.290129 0.1054688,0.435547 l 0.2832031,-0.08398 c 3.9398279,-1.182521 5.7033386,-3.030576 6.1503906,-4.296875 0.24526,-0.694664 0.225144,-1.271076 0.160156,-1.667968 z"
           id="path3-9" /><path
           style="opacity:0.2;fill-rule:evenodd"
           d="m 15.49898,16.000347 c -1.360643,0 -2.728123,0.44979 -3.769216,1.37522 -1.041094,0.925429 -1.729765,2.335739 -1.729765,4.12577 0,1.79003 0.688671,3.19836 1.729765,4.12379 1.041093,0.92543 2.408573,1.37522 3.769216,1.37522 1.360644,0 2.728124,-0.44979 3.769218,-1.37522 1.041094,-0.92543 1.731801,-2.33376 1.731801,-4.12379 0,-1.790031 -0.690707,-3.200341 -1.731801,-4.12577 -1.041094,-0.92543 -2.408574,-1.37522 -3.769218,-1.37522 z"
           id="path4-7" /><path
           style="opacity:0.2;fill-rule:evenodd"
           d="m 24.49898,16.000347 c -1.360643,0 -2.728123,0.44979 -3.769216,1.37522 -1.041094,0.925429 -1.729765,2.335739 -1.729765,4.12577 0,1.79003 0.688671,3.19836 1.729765,4.12379 1.041093,0.92543 2.408573,1.37522 3.769216,1.37522 1.360644,0 2.728124,-0.44979 3.769218,-1.37522 1.041094,-0.92543 1.731801,-2.33376 1.731801,-4.12379 0,-1.790031 -0.690707,-3.200341 -1.731801,-4.12577 -1.041094,-0.92543 -2.408574,-1.37522 -3.769218,-1.37522 z"
           id="path5-3" /><path
           style="fill:#ffffff;fill-rule:evenodd"
           d="m 15.49898,15.000347 c -1.360643,0 -2.728123,0.44979 -3.769216,1.37522 -1.041094,0.925429 -1.729765,2.335739 -1.729765,4.12577 0,1.79003 0.688671,3.19836 1.729765,4.12379 1.041093,0.92543 2.408573,1.37522 3.769216,1.37522 1.360644,0 2.728124,-0.44979 3.769218,-1.37522 1.041094,-0.92543 1.731801,-2.33376 1.731801,-4.12379 0,-1.790031 -0.690707,-3.200341 -1.731801,-4.12577 -1.041094,-0.92543 -2.408574,-1.37522 -3.769218,-1.37522 z"
           id="path6" /><path
           style="fill:#3f3f3f;fill-rule:evenodd"
           d="m 16.499999,19.000348 c -0.612591,0 -1.231888,0.2025 -1.708985,0.6266 -0.477095,0.4241 -0.791015,1.0773 -0.791015,1.8734 0,0.7961 0.31392,1.4493 0.791015,1.8734 0.477097,0.4241 1.096394,0.626599 1.708985,0.626599 0.612591,0 1.231888,-0.202499 1.708984,-0.626599 0.477096,-0.4241 0.791016,-1.0773 0.791016,-1.8734 0,-0.7961 -0.31392,-1.4493 -0.791016,-1.8734 -0.477096,-0.4241 -1.096393,-0.6266 -1.708984,-0.6266 z"
           id="path7" /><path
           style="opacity:0.3;fill-rule:evenodd"
           d="m 15,30.998681 c 2.142855,0 4.096438,0.107353 5.868413,0 2.943625,-0.18162 5.531099,-0.501479 6.839263,-1.506937 C 27.154334,28.780357 27,28 27,28 c 0,0 1.664475,0.679202 2.529098,1.790113 0.862146,1.107812 -0.303467,1.790312 -0.529098,3.207689 -0.502301,-1.244853 -0.816275,-1.711747 -0.943207,-2.20643 -0.912915,1.256248 -2.485353,2.157251 -4.600295,2.20643 -2.25121,0.05197 -5.117084,-0.823438 -8.456497,-1.997122 z"
           id="path8" /><path
           style="opacity:0.1;fill-rule:evenodd"
           d="m 5.4739682,19.000347 c -0.2662341,0 -0.5273164,0.01625 -0.7811008,0.05633 -0.676758,0.106167 -1.3033531,0.360534 -1.8435657,0.746417 -2.16084994,1.543643 -2.72993104,5.042053 -0.060893,8.705455 2.6690394,3.66351 6.2002876,4.232044 8.3611373,2.688402 2.16085,-1.543644 2.732032,-5.042054 0.06299,-8.705456 C 9.460981,20.08736 7.3376061,19.016702 5.4739676,19.00056 Z"
           id="path9" /><path
           style="fill:#3f3f3f;fill-rule:evenodd"
           d="m 5.4739682,18.000347 c -0.2662341,0 -0.5273164,0.01625 -0.7811008,0.05633 -0.676758,0.106167 -1.3033531,0.360534 -1.8435657,0.746417 -2.16084994,1.543643 -2.72993104,5.042053 -0.060893,8.705455 2.6690394,3.66351 6.2002876,4.232044 8.3611373,2.688402 2.16085,-1.543644 2.732032,-5.042054 0.06299,-8.705456 C 9.460981,19.08736 7.3376061,18.016702 5.4739676,18.00056 Z"
           id="path10" /><path
           style="fill:#ffffff;fill-rule:evenodd"
           d="m 24.49898,15.000347 c -1.360643,0 -2.728123,0.44979 -3.769216,1.37522 -1.041094,0.925429 -1.729765,2.335739 -1.729765,4.12577 0,1.79003 0.688671,3.19836 1.729765,4.12379 1.041093,0.92543 2.408573,1.37522 3.769216,1.37522 1.360644,0 2.728124,-0.44979 3.769218,-1.37522 1.041094,-0.92543 1.731801,-2.33376 1.731801,-4.12379 0,-1.790031 -0.690707,-3.200341 -1.731801,-4.12577 -1.041094,-0.92543 -2.408574,-1.37522 -3.769218,-1.37522 z"
           id="path11" /><path
           style="fill:#3f3f3f;fill-rule:evenodd"
           d="m 25.499999,19.000348 c -0.612591,0 -1.231888,0.2025 -1.708985,0.6266 -0.477095,0.4241 -0.791015,1.0773 -0.791015,1.8734 0,0.7961 0.31392,1.4493 0.791015,1.8734 0.477097,0.4241 1.096394,0.626599 1.708985,0.626599 0.612591,0 1.231888,-0.202499 1.708984,-0.626599 0.477096,-0.4241 0.791016,-1.0773 0.791016,-1.8734 0,-0.7961 -0.31392,-1.4493 -0.791016,-1.8734 -0.477096,-0.4241 -1.096393,-0.6266 -1.708984,-0.6266 z"
           id="path12" /><path
           style="opacity:0.1;fill:#ffffff;fill-rule:evenodd"
           d="m 5.4746087,18.000347 c -0.2662341,0 -0.5274656,0.01656 -0.78125,0.05664 -0.676758,0.106167 -1.3035374,0.36021 -1.84375,0.746093 -1.2651414,0.903777 -1.97883064,2.480511 -1.8222656,4.365235 0.1248044,-1.437444 0.7884267,-2.626693 1.8222656,-3.365235 0.5402126,-0.385883 1.166992,-0.639926 1.84375,-0.746093 0.2537844,-0.04008 0.5150159,-0.05664 0.78125,-0.05664 1.8636385,0.01614 3.9867263,1.086099 5.7382813,3.490234 1.106362,1.518542 1.649341,3.00743 1.759765,4.341797 C 13.109459,25.265249 12.605152,23.401536 11.21289,21.490581 9.461335,19.086446 7.3382472,18.016489 5.4746087,18.000347 Z"
           id="path13" /><path
           style="opacity:0.2"
           d="M 28.013672,31.476562 27,32.033203 c 0,0 4.235069,3.742159 8.041016,5.589844 -0.04806,0.278168 -0.06619,0.560343 -0.04102,0.896484 l 0.699219,-0.11914 c 0,0 2.509635,0.725773 4.363281,1.291015 -0.263165,1.157441 0.33679,2.582556 1.892578,3.152344 C 44.569242,43.801155 47,45 47,45 c -1.246985,-4.051583 -1.688483,-7.268681 -4.947266,-6.982422 -0.122706,0.01078 -0.23566,0.03566 -0.347656,0.06055 L 37,35.669922 V 35 l -0.482422,0.318359 c -0.08886,0.04864 -0.171585,0.108602 -0.253906,0.169922 -3.521809,-2.127164 -8.25,-4.011718 -8.25,-4.011719 z"
           id="path14" /><path
           style="fill:#ff9a0c"
           d="m 36.967774,37.400437 0.926394,-1.844875 c -3.44633,-2.521335 -9.880184,-5.079843 -9.880184,-5.079843 l -1.013758,0.557286 c 0,0 5.841507,5.181035 9.967548,6.367432 z"
           id="path15" /><path
           style="fill:#8a8a8a"
           d="m 37.000001,34.000034 -0.483074,0.317687 c -0.447434,0.244909 -0.810437,0.661172 -1.104875,1.142591 -0.336916,0.791414 -0.469962,1.286319 -0.412051,2.059551 l 0.7,-0.119863 c 0,0 3.654923,1.048538 5.385122,1.6 l 0.202389,-0.389889 0.712489,-1.379051 -5,-2.561438 z"
           id="path16" /><path
           style="fill:#3f3f3f"
           d="m 47,44 c -1.246985,-4.051583 -1.689265,-7.268529 -4.948048,-6.98227 -2.626127,0.230686 -2.80998,3.832334 -0.09627,4.826197 C 44.569846,42.801332 46.999997,44 46.999997,44 Z"
           id="path17" /></g><g
         id="g11"
         transform="matrix(0.56408124,0,0,0.56408124,73.281587,77.299249)"><path
           style="opacity:0.2;fill-rule:evenodd"
           d="M 15.998047,2.000028 C 15.143135,2.0003767 14.311444,2.3203134 13.65625,2.9980749 L 1.9960938,15.041044 C 1.3536141,15.705715 1.0127854,16.581807 1,17.449247 c -1.9218e-4,0.01319 0,0.04613 0,0.06055 -1.2097e-4,2.580774 6.4213452,0.07316 7.0429688,3.228515 C 8.3793295,22.446011 5,21.664652 5,23.38284 c 0,2.015489 6.434997,0.372166 7.785156,2.291016 1.033512,1.46883 -2.476242,1.531315 -1.65625,2.9375 0.7034,1.206247 3.018014,0.433495 3.4375,2.054688 0.479149,1.851859 3.362638,1.646053 5.105469,0.177734 1.068368,-0.900089 -1.211054,-1.4645 -0.240234,-2.46875 0.970756,-1.00432 4.826744,-0.814347 4.568359,-2.994141 -0.171003,-1.442614 -1.843453,-1.602896 -1.871094,-3.232421 -0.09653,-1.380014 1.848681,-0.97623 6.820313,-2.34961 1.987938,-0.93399 2.058352,-1.430851 2.050781,-2.291016 -1.57e-4,-0.01705 0,-0.0404 0,-0.05859 -0.01132,-0.867369 -0.412272,-1.743553 -1.054688,-2.408203 L 18.341797,2.9980749 C 17.68646,2.3202423 16.854483,2.0003768 16,2.000028 Z m 12.833984,21.001953 c -0.212024,-0.0077 -0.42531,0.012 -0.576172,0.06055 -0.284365,0.09439 -1.632506,0.148666 -1.521484,1.328125 1.220485,0.589455 3.080943,1.058226 3.302734,-0.121094 0.166515,-0.884372 -0.568911,-1.240509 -1.205078,-1.267578 z M 6.4140625,26.03909 C 6.2951927,26.05537 6.2138311,26.112931 6.0976562,26.166044 5.1686561,26.590534 4.546136,27.484863 5.4140625,27.875028 6.2821171,28.2651 6.8640809,27.85094 7.625,27.367216 8.3860479,26.883254 8.3636375,26.796093 8.3085938,26.609403 8.2031003,26.634743 7.5117892,26.11604 6.7832031,26.03909 c -0.1214103,-0.01221 -0.2503032,-0.01628 -0.3691406,0 z"
           id="path1-61" /><path
           style="fill:#4f4f4f;fill-rule:evenodd"
           d="M 15.998047,1 C 15.143135,1.0003487 14.311444,1.3202854 13.65625,1.9980469 L 1.9960938,14.041016 C 1.3536141,14.705687 1.0127854,15.581779 1,16.449219 c -1.9218e-4,0.01319 0,0.04613 0,0.06055 -1.2097e-4,2.580774 6.4213452,0.07316 7.0429688,3.228515 C 8.3793295,21.445983 5,20.664624 5,22.382812 c 0,2.015489 6.434997,0.372166 7.785156,2.291016 1.033512,1.46883 -2.476242,1.531315 -1.65625,2.9375 0.7034,1.206247 3.018014,0.433495 3.4375,2.054688 0.479149,1.851859 3.362638,1.646053 5.105469,0.177734 1.068368,-0.900089 -1.211054,-1.4645 -0.240234,-2.46875 0.970756,-1.00432 4.826744,-0.814347 4.568359,-2.994141 -0.171003,-1.442614 -1.843453,-1.602896 -1.871094,-3.232421 -0.09653,-1.380014 1.848681,-0.97623 6.820313,-2.34961 1.987938,-0.93399 2.058352,-1.430851 2.050781,-2.291016 -1.57e-4,-0.01705 0,-0.0404 0,-0.05859 -0.01132,-0.867369 -0.412272,-1.743553 -1.054688,-2.408203 L 18.341797,1.9980469 C 17.68646,1.3202143 16.854483,1.0003488 16,1 Z m 12.833984,21.001953 c -0.212024,-0.0077 -0.42531,0.012 -0.576172,0.06055 -0.284365,0.09439 -1.632506,0.148666 -1.521484,1.328125 1.220485,0.589455 3.080943,1.058226 3.302734,-0.121094 0.166515,-0.884372 -0.568911,-1.240509 -1.205078,-1.267578 z M 6.4140625,25.039062 C 6.2951927,25.055342 6.2138311,25.112903 6.0976562,25.166016 5.1686561,25.590506 4.546136,26.484835 5.4140625,26.875 6.2821171,27.265072 6.8640809,26.850912 7.625,26.367188 8.3860479,25.883226 8.3636375,25.796065 8.3085938,25.609375 8.2031003,25.634715 7.5117892,25.116012 6.7832031,25.039062 c -0.1214103,-0.01221 -0.2503032,-0.01628 -0.3691406,0 z"
           id="path2-29" /><path
           style="opacity:0.2;fill-rule:evenodd"
           d="m 16.053655,5.0713855 c 0.879785,0.00748 3.2905,2.9907858 5.441357,5.2250005 0.605,0.811785 -0.234015,1.643785 -0.234015,1.643785 l -4.505,-2.465714 -1.989285,2.700714 -1.755,-2.6414282 L 11.95814,13.643028 8.8574261,11.764457 9.6767118,10.707314 14.532426,5.7175283 C 14.90489,5.3378426 15.190112,5.0650212 16.05364,5.0717426 Z"
           id="path3-3" /><path
           style="fill:#ffffff;fill-rule:evenodd"
           d="m 16.053655,4.0713575 c 0.879785,0.00748 3.2905,2.9907858 5.441357,5.2250001 0.605,0.8117854 -0.234015,1.6437854 -0.234015,1.6437854 l -4.505,-2.465714 -1.989285,2.700714 -1.755,-2.6414282 L 11.95814,12.643 8.8574261,10.764429 9.6767118,9.707286 14.532426,4.7175003 C 14.90489,4.3378146 15.190112,4.0649932 16.05364,4.0717146 Z"
           id="path4-1" /><path
           style="opacity:0.1;fill:#ffffff;fill-rule:evenodd"
           d="M 15.998047,1 C 15.143135,1.0003487 14.311444,1.3202854 13.65625,1.9980469 L 1.9960938,14.041016 C 1.3536141,14.705687 1.0127854,15.581779 1,16.449219 c -1.9218e-4,0.01319 0,0.04613 0,0.06055 -6.49e-6,0.138495 0.027409,0.256338 0.0625,0.367187 0.1217862,-0.670664 0.4328778,-1.317927 0.9335938,-1.835937 L 13.65625,2.9980469 C 14.311444,2.3202854 15.143135,2.0003487 15.998047,2 H 16 c 0.854483,3.488e-4 1.68646,0.3202143 2.341797,0.9980469 L 29.945312,15.041016 c 0.55875,0.578087 0.917741,1.317161 1.013672,2.070312 0.03929,-0.186229 0.04296,-0.383025 0.04102,-0.603516 -1.57e-4,-0.01705 0,-0.0404 0,-0.05859 -0.01132,-0.867369 -0.412272,-1.743553 -1.054688,-2.408203 L 18.341797,1.9980469 C 17.68646,1.3202143 16.854483,1.0003488 16,1 Z M 7.9277344,20.402344 C 7.3409863,21.250414 5,20.950574 5,22.382812 c 0,0.178475 0.065283,0.319204 0.1582031,0.445313 0.6613649,-1.001182 3.177277,-0.604767 2.8847657,-2.089844 -0.024739,-0.125575 -0.072894,-0.227623 -0.1152344,-0.335937 z m 14.2812496,1.27539 c -0.06482,0.130619 -0.0932,0.283099 -0.08008,0.470704 0.02552,1.504275 1.437246,1.768831 1.791016,2.933593 0.07945,-0.202853 0.111818,-0.433407 0.08008,-0.701172 -0.150311,-1.26805 -1.45732,-1.547912 -1.791016,-2.703125 z m 6.623047,0.324219 c -0.212024,-0.0077 -0.42531,0.012 -0.576172,0.06055 -0.284365,0.09439 -1.632506,0.148666 -1.521484,1.328125 0.09773,0.0472 0.215546,0.08208 0.320313,0.126953 0.391185,-0.34417 1.016977,-0.393938 1.201171,-0.455078 0.150862,-0.04855 0.364148,-0.06825 0.576172,-0.06055 0.41642,0.01772 0.871121,0.179587 1.091797,0.535156 0.04562,-0.08119 0.09309,-0.160237 0.113281,-0.267578 0.166515,-0.884372 -0.568911,-1.240509 -1.205078,-1.267578 z M 6.4140625,25.039062 c -0.1188698,0.01628 -0.2002314,0.07384 -0.3164063,0.126954 -0.85969,0.39282 -1.4413584,1.18372 -0.8378906,1.609375 0.1998591,-0.233941 0.4972895,-0.453744 0.8378906,-0.609375 0.1161749,-0.05311 0.1975365,-0.110674 0.3164063,-0.126954 0.1188374,-0.01628 0.2477303,-0.01221 0.3691406,0 0.3283625,0.03468 0.6412911,0.161263 0.9042969,0.285157 0.680269,-0.439651 0.6741574,-0.53487 0.6210938,-0.714844 -0.1054936,0.02534 -0.7968046,-0.493362 -1.5253907,-0.570313 -0.1214103,-0.01221 -0.2503032,-0.01628 -0.3691406,0 z m 6.3398435,0.603516 c -0.59485,0.638928 -2.212286,0.961627 -1.625,1.96875 0.02718,0.04661 0.06196,0.08405 0.09375,0.125 0.618974,-0.658083 2.325591,-0.977994 1.5625,-2.0625 -0.0084,-0.01188 -0.02251,-0.01964 -0.03125,-0.03125 z m 6.648438,2.767578 c -0.497266,0.55353 -0.02093,0.974061 0.308594,1.394532 0.570284,-0.523583 0.02654,-0.937372 -0.308594,-1.394532 z"
           id="path5-9" /></g><g
         id="g12"
         transform="matrix(1.2229885,0,0,1.2229885,47.345178,76.822681)"><path
           style="fill:#3584e4"
           d="m 14.928212,4.0000002 a 7.9999366,7.9999998 0 0 1 0,7.9999998 L 8,8.0000001 Z"
           id="path1-4" /><path
           style="fill:#a347ba"
           d="M 14.928212,12 A 7.9999366,7.9999998 0 0 1 8,16 V 8.0000001 Z"
           id="path2-7" /><path
           style="fill:#33d17a"
           d="M 8,2.2e-7 A 7.9999366,7.9999998 0 0 1 14.928212,4.0000002 L 8,8.0000001 Z"
           id="path3-8" /><path
           style="fill:#f6d32d"
           d="M 1.0717883,4.0000002 A 7.9999366,7.9999998 0 0 1 8,2.2e-7 V 8.0000001 Z"
           id="path4-4" /><path
           style="fill:#ff7800"
           d="m 1.0717883,12 a 7.9999366,7.9999998 0 0 1 0,-7.9999998 L 8,8.0000001 Z"
           id="path5-5" /><path
           style="fill:#ed333b"
           d="M 8,16 A 7.9999366,7.9999998 0 0 1 1.0717883,12 L 8,8.0000001 Z"
           id="path6-0" /><path
           style="fill:#ffffff"
           d="M 12.038778,3.4052134 7.1784784,8.2648729 C 6.7892392,8.8486544 6.9838588,9.4324364 6.4,10.016218 L 6.9838588,10.6 C 7.5677176,10.016218 8.3569648,10.217298 8.7354347,9.821624 L 13.595735,4.9619649 Z"
           id="path7-3" /><path
           style="fill:#3f3f3f"
           d="M 14.816798,0.99995388 A 1.1833384,1.1833422 0 0 0 13.975604,1.3523587 l -5.78e-4,-5.654e-4 -1.217034,1.2171334 -0.760906,-0.7608143 c -0.177425,-0.177426 -0.354852,0 -0.354852,0 l -0.563336,0.5633394 c 0,0 -0.177521,0.1774261 0,0.354852 l 3.194693,3.1947984 c 0.17752,0.1775201 0.354945,0 0.354945,0 l 0.563339,-0.5632456 c 0.177424,-0.1775201 0,-0.354946 0,-0.354946 l -0.760812,-0.7608138 1.210163,-1.2101682 0.007,-0.00696 -1.88e-4,-1.884e-4 A 1.1831503,1.1831539 0 0 0 16,2.1832992 C 16,1.5296937 15.470266,0.99995698 14.81685,0.99995698 Z"
           font-weight="400"
           overflow="visible"
           id="path8-6" /></g><g
         id="g18"
         transform="matrix(0.85810399,0,0,0.85810399,22.512046,76.952958)"><path
           style="opacity:0.2"
           d="M 3.5795835,3.5541743 3.939478,6.3687786 c 0.075191,0.6400938 0.2047465,1.47744 0.193097,2.1209801 -0.00617,0.3216847 -0.060012,0.6495718 -0.2186905,0.9321428 -0.079251,0.140596 -0.184801,0.269132 -0.315062,0.367515 -0.1302611,0.0989 -0.2854091,0.167476 -0.4488531,0.187807 -0.265464,0.0336 -0.52881,-0.05927 -0.772917,-0.16558 -0.2434011,-0.106998 -0.4853901,-0.231571 -0.7494421,-0.267926 -0.25858,-0.03618 -0.526692,0.01619 -0.75773761,0.133877 -0.230869,0.118542 -0.424672,0.300836 -0.5660525,0.5150035 -0.282585,0.427993 -0.34806854,1.308794 -0.2778195,1.813633 0.052952,0.382334 0.1853305,0.763804 0.4433815,1.056715 0.128849,0.145938 0.288233,0.268443 0.468798,0.346494 0.18056511,0.07875 0.38266411,0.113201 0.57911461,0.0896 0.271818,-0.0331 0.7166789,-0.1723 0.9634334,-0.288772 0.1242601,-0.05789 0.2509906,-0.110962 0.3840756,-0.142668 0.133085,-0.03172 0.27376,-0.041 0.407551,-0.01136 0.1447345,0.03153 0.2764075,0.108204 0.3819575,0.209863 0.1060801,0.10097 0.1853311,0.226228 0.2426951,0.359417 0.1129635,0.267238 0.134497,0.561354 0.1482645,0.850126 0.083926,1.73036 -0.049445,3.261076 -0.3971371,4.9598 1.2004227,0.41437 2.1828879,0.733021 3.436085,0.95282 0.4151405,0.07358 0.8459906,0.134742 1.2549531,0.03378 0.2047465,-0.05049 0.400667,-0.142663 0.556345,-0.281362 0.1558542,-0.138529 0.2697002,-0.325652 0.3020012,-0.529653 -0.01163,-0.772652 -0.5528731,-1.511553 -0.6315397,-2.259967 -0.052952,-0.268443 -0.00405,-0.552569 0.1193175,-0.798267 0.124083,-0.245528 0.3205332,-0.452974 0.5506962,-0.609085 0.461385,-0.310828 1.0413819,-0.410587 1.6017869,-0.415239 0.513631,-0.0039 1.044847,0.07134 1.481168,0.336502 0.217985,0.132672 0.408257,0.311692 0.536577,0.528965 0.128849,0.216749 0.193626,0.472615 0.168209,0.721592 -0.160341,1.044189 -0.54655,1.50542 -0.660659,2.199231 -0.02754,0.191252 -0.0034,0.297135 0.09796,0.462543 0.07237,0.117854 0.180036,0.211928 0.299353,0.284126 0.119141,0.07271 0.250285,0.124398 0.382664,0.170918 0.858552,0.298678 1.831062,0.32924 2.729774,0.181053 0.898328,-0.150501 1.741949,-0.523873 2.449895,-1.084281 l -0.456619,-3.337625 c -0.07996,-0.586856 -0.201216,-0.873998 -0.184801,-1.465501 0.0076,-0.296181 0.06001,-0.59633 0.201392,-0.858052 0.06939,-0.132213 0.163908,-0.250331 0.278526,-0.34805 0.114294,-0.09828 0.251291,-0.16804 0.399255,-0.203312 0.141204,-0.03153 0.288939,-0.02826 0.43085,-0.0034 0.142793,0.02499 0.280643,0.07064 0.41514,0.121988 0.269524,0.102858 0.533576,0.230879 0.820397,0.268438 0.264758,0.035 0.539224,-0.01068 0.781213,-0.120436 0.242695,-0.110269 0.452913,-0.283949 0.612297,-0.49329 0.319122,-0.41938 0.42679,-1.215191 0.361306,-1.732953 -0.05383,-0.42179 -0.222043,-0.837722 -0.52122,-1.146657 -0.149676,-0.1542075 -0.330947,-0.2808475 -0.53234,-0.3614835 -0.201216,-0.0815 -0.42273,-0.117854 -0.639126,-0.097 -0.288939,0.02705 -0.556521,0.150762 -0.827457,0.25173 -0.135027,0.05117 -0.273584,0.09632 -0.41567,0.121816 -0.142793,0.02567 -0.291058,0.03032 -0.432438,-6.81e-4 -0.214278,-0.04653 -0.405257,-0.173514 -0.543813,-0.339783 -0.138734,-0.16627 -0.42735,-0.368722 -0.473418,-0.578927 -0.09249,-0.4186894 -0.02206,-1.0534111 0.0406,-1.4774409 0.209614,-1.4222684 0.327516,-2.7098592 0.35301,-4.1465562 -1.281559,-0.4016618 -2.399247,-0.6824741 -3.735706,-0.8385838 -0.411081,-0.048418 -0.8384,-0.082704 -1.230242,0.047208 -0.19645,0.06513 -0.37984,0.1723001 -0.517691,0.3230624 -0.13785,0.1499008 -0.227515,0.3464954 -0.231574,0.5484307 -0.0036,0.1419752 0.03512,0.2834336 0.09584,0.4126585 0.518985,0.8075299 0.830133,1.5170595 0.635514,2.4364676 -0.104667,0.2948058 -0.308178,0.5525672 -0.560404,0.7443372 -0.253109,0.1919417 -0.553698,0.3190995 -0.865406,0.3899149 -0.311532,0.070643 -0.634184,0.08615 -0.954188,0.067885 C 10.110897,7.4836719 9.5856171,7.3599618 9.1733001,7.0563696 8.9671424,6.9047448 8.7925784,6.709012 8.6808509,6.4822661 8.5692989,6.2553465 8.5209364,5.9963796 8.5590619,5.7472335 8.6113074,5.4086642 8.9126904,4.6593583 9.0823121,4.3599008 c 0.08472,-0.1500731 0.163268,-0.3049709 0.21163,-0.4691727 0.04889,-0.1642018 0.0669,-0.3404651 0.02965,-0.5074236 C 9.2849371,3.2082518 9.1869771,3.0488743 9.0567161,2.9229224 8.9264554,2.7977955 8.7651299,2.705615 8.5926839,2.6442759 8.2486749,2.5219433 7.8728953,2.5224602 7.5075293,2.5433083 6.1423567,2.6218166 4.8069611,2.9654894 3.5795785,3.5541923 Z"
           id="path1-10" /><path
           style="fill:#33d17a"
           d="M 3.5795835,3.0542343 3.939478,5.8688386 c 0.075191,0.6400938 0.2047465,1.47744 0.193097,2.1209801 -0.00617,0.3216847 -0.060012,0.6495722 -0.2186905,0.9321433 -0.079251,0.1405965 -0.184801,0.2691325 -0.315062,0.3675155 -0.1302611,0.0989 -0.2854091,0.167476 -0.4488531,0.187807 -0.265464,0.0336 -0.52881,-0.05927 -0.772917,-0.16558 -0.2434011,-0.106998 -0.4853901,-0.231571 -0.7494421,-0.267926 -0.25858,-0.03618 -0.526692,0.01619 -0.75773761,0.133877 -0.230869,0.118542 -0.424672,0.300836 -0.5660525,0.515004 -0.282585,0.4279925 -0.34806854,1.3087935 -0.2778195,1.8136325 0.052952,0.382334 0.1853305,0.763804 0.4433815,1.056715 0.128849,0.145938 0.288233,0.268443 0.468798,0.346494 0.18056511,0.07875 0.38266411,0.113201 0.57911461,0.0896 0.271818,-0.0331 0.7166789,-0.1723 0.9634334,-0.288772 0.1242601,-0.05789 0.2509906,-0.110962 0.3840756,-0.142668 0.133085,-0.03172 0.27376,-0.041 0.407551,-0.01136 0.1447345,0.03153 0.2764075,0.108204 0.3819575,0.209863 0.1060801,0.10097 0.1853311,0.226228 0.2426951,0.359417 0.1129635,0.267238 0.134497,0.561354 0.1482645,0.850126 0.083926,1.73036 -0.049445,3.261076 -0.3971371,4.9598 1.2004227,0.41437 2.1828879,0.733021 3.436085,0.95282 0.4151405,0.07358 0.8459906,0.134742 1.2549531,0.03378 0.2047465,-0.05049 0.400667,-0.142663 0.556345,-0.281362 0.1558542,-0.138529 0.2697002,-0.325652 0.3020012,-0.529653 -0.01163,-0.772652 -0.5528731,-1.511553 -0.6315397,-2.259967 -0.052952,-0.268443 -0.00405,-0.552569 0.1193175,-0.798267 0.124083,-0.245528 0.3205332,-0.452974 0.5506962,-0.609085 0.461385,-0.310828 1.0413819,-0.410587 1.6017869,-0.415239 0.513631,-0.0039 1.044847,0.07134 1.481168,0.336502 0.217985,0.132672 0.408257,0.311692 0.536577,0.528965 0.128849,0.216749 0.193626,0.472615 0.168209,0.721592 -0.160341,1.044189 -0.54655,1.50542 -0.660659,2.199231 -0.02754,0.191252 -0.0034,0.297135 0.09796,0.462543 0.07237,0.117854 0.180036,0.211928 0.299353,0.284126 0.119141,0.07271 0.250285,0.124398 0.382664,0.170918 0.858552,0.298678 1.831062,0.32924 2.729774,0.181053 0.898328,-0.150501 1.741949,-0.523873 2.449895,-1.084281 l -0.456619,-3.337625 c -0.07996,-0.586856 -0.201216,-0.873998 -0.184801,-1.465501 0.0076,-0.296181 0.06001,-0.59633 0.201392,-0.858052 0.06939,-0.132213 0.163908,-0.250331 0.278526,-0.34805 0.114294,-0.09828 0.251291,-0.16804 0.399255,-0.203312 0.141204,-0.03153 0.288939,-0.02826 0.43085,-0.0034 0.142793,0.02499 0.280643,0.07064 0.41514,0.121988 0.269524,0.102858 0.533576,0.230879 0.820397,0.268438 0.264758,0.035 0.539224,-0.01068 0.781213,-0.120436 0.242695,-0.110269 0.452913,-0.283949 0.612297,-0.49329 0.319122,-0.41938 0.42679,-1.215191 0.361306,-1.732953 -0.05383,-0.42179 -0.222043,-0.8377215 -0.52122,-1.1466565 -0.149676,-0.154208 -0.330947,-0.280848 -0.53234,-0.361484 -0.201216,-0.0815 -0.42273,-0.117854 -0.639126,-0.097 -0.288939,0.02705 -0.556521,0.150762 -0.827457,0.25173 -0.135027,0.05117 -0.273584,0.09632 -0.41567,0.121816 -0.142793,0.02567 -0.291058,0.03032 -0.432438,-6.81e-4 -0.214278,-0.04653 -0.405257,-0.173514 -0.543813,-0.339783 -0.138734,-0.1662702 -0.42735,-0.3687229 -0.473418,-0.5789283 -0.09249,-0.4186891 -0.02206,-1.0534108 0.0406,-1.4774406 0.209614,-1.4222684 0.327516,-2.7098592 0.35301,-4.1465562 -1.281559,-0.4016618 -2.399247,-0.6824741 -3.735706,-0.8385838 -0.411081,-0.048418 -0.8384,-0.082704 -1.230242,0.047208 -0.19645,0.06513 -0.37984,0.1723001 -0.517691,0.3230624 -0.13785,0.1499008 -0.227515,0.3464954 -0.231574,0.5484307 -0.0036,0.1419752 0.03512,0.2834336 0.09584,0.4126585 0.518985,0.8075299 0.830133,1.5170595 0.635514,2.4364676 -0.104667,0.2948058 -0.308178,0.5525672 -0.560404,0.7443372 -0.253109,0.1919417 -0.553698,0.3190995 -0.865406,0.3899149 -0.311532,0.070643 -0.634184,0.08615 -0.954188,0.067885 C 10.110897,6.9837319 9.5856171,6.8600218 9.1733001,6.5564296 8.9671424,6.4048048 8.7925784,6.209072 8.6808509,5.9823261 8.5692989,5.7554065 8.5209364,5.4964396 8.5590619,5.2472935 8.6113074,4.9087242 8.9126904,4.1594183 9.0823121,3.8599608 c 0.08472,-0.1500731 0.163268,-0.3049709 0.21163,-0.4691727 0.04889,-0.1642018 0.0669,-0.3404651 0.02965,-0.5074236 C 9.2849371,2.7083118 9.1869771,2.5489343 9.0567161,2.4229824 8.9264554,2.2978555 8.7651299,2.205675 8.5926839,2.1443359 8.2486749,2.0220033 7.8728953,2.0225202 7.5075293,2.0433683 6.1423567,2.1218766 4.8069611,2.4655494 3.5795785,3.0542523 Z"
           id="path2-63" /><path
           style="opacity:0.2;fill:#ffffff"
           d="m 13.630859,2.0000005 c -0.207195,0.00162 -0.4115,0.024888 -0.607421,0.089844 -0.196451,0.06513 -0.379728,0.1734564 -0.517579,0.3242187 -0.13785,0.1499008 -0.226409,0.3468928 -0.230468,0.5488281 -0.0024,0.095203 0.01931,0.1880912 0.04883,0.2792969 0.03936,-0.1202063 0.0954,-0.2343444 0.18164,-0.328125 0.137851,-0.1507623 0.321128,-0.2590888 0.517579,-0.3242187 0.391842,-0.129912 0.819387,-0.095293 1.230468,-0.046875 1.327204,0.1550285 2.44049,0.4348135 3.710938,0.8320312 0.0056,-0.1664236 0.02237,-0.3220532 0.02539,-0.4921875 -1.281561,-0.401662 -2.399871,-0.6837342 -3.73633,-0.8398439 -0.20554,-0.024209 -0.415851,-0.044584 -0.623047,-0.042969 z M 8.0585939,2.0410161 C 7.8759771,2.0284598 7.6904956,2.0325452 7.5078126,2.0429693 6.14264,2.1214776 4.8074608,2.4659851 3.5800782,3.054688 l 0.060547,0.4746094 c 1.211027,-0.5714602 2.5239897,-0.9090836 3.8671874,-0.9863281 0.365366,-0.020848 0.7399754,-0.02077 1.0839844,0.1015624 0.172446,0.061339 0.334583,0.15417 0.4648441,0.2792969 0.117005,0.1131348 0.202735,0.2539949 0.248047,0.4082031 0.03655,-0.1473119 0.05244,-0.3016965 0.01953,-0.4492187 C 9.2855641,2.7077603 9.1869021,2.5497805 9.0566411,2.4238286 8.92638,2.2987017 8.764243,2.2058708 8.591797,2.1445317 8.4197925,2.0833654 8.2412106,2.0535725 8.0585939,2.0410161 Z M 13.033203,5.492188 c -0.0092,0.1061757 -0.0037,0.2065274 -0.02734,0.3183594 C 12.901196,6.1053532 12.697543,6.362918 12.445316,6.554688 12.192207,6.7466297 11.89179,6.8744976 11.580082,6.945313 11.268546,7.015956 10.945004,7.0319374 10.625,7.0136724 10.109949,6.9840174 9.5861451,6.8602333 9.1738281,6.5566411 8.9676705,6.4050163 8.7933682,6.2091683 8.6816407,5.9824224 8.6337927,5.8850898 8.6047894,5.7796494 8.5820313,5.6738286 c -0.00406,0.019893 -0.020697,0.056461 -0.023437,0.074219 -0.038126,0.2491461 0.011495,0.5074554 0.1230468,0.734375 0.1117275,0.2267459 0.2860298,0.4225939 0.492187,0.5742187 0.412317,0.3035922 0.9361209,0.4273763 1.4511719,0.4570313 0.320004,0.018265 0.643546,0.00228 0.955078,-0.068359 0.311708,-0.070815 0.612125,-0.1986833 0.865234,-0.390625 0.252227,-0.19177 0.45588,-0.4493348 0.560547,-0.7441406 0.06184,-0.2921469 0.05808,-0.558717 0.02734,-0.8183594 z M 4.1132813,8.1679693 c -0.020996,0.2626188 -0.06989,0.5236 -0.1992187,0.7539062 -0.079251,0.140596 -0.1841921,0.268804 -0.3144531,0.367187 -0.1302611,0.0989 -0.2857748,0.16717 -0.4492188,0.1875 -0.265464,0.0336 -0.5293305,-0.05775 -0.7734375,-0.164062 -0.2434011,-0.106998 -0.485948,-0.233176 -0.75,-0.269531 -0.25858,-0.03618 -0.5267669,0.01708 -0.75781251,0.134765 -0.230869,0.118542 -0.4230726,0.301457 -0.5644531,0.515625 -0.2550248,0.3862515 -0.32786817,1.1279075 -0.2890625,1.6425785 0.025566,-0.423475 0.1102397,-0.87174 0.2890625,-1.142579 0.1413805,-0.2141675 0.3335841,-0.3970825 0.5644531,-0.5156245 0.23104561,-0.117687 0.49923251,-0.170945 0.75781251,-0.134765 0.264052,0.03636 0.5065989,0.162533 0.75,0.269531 0.244107,0.10631 0.5079735,0.1976615 0.7734375,0.164062 0.163444,-0.02033 0.3189577,-0.0886 0.4492188,-0.1875 0.130261,-0.09838 0.2352021,-0.226591 0.3144531,-0.367187 0.1586785,-0.282571 0.21258,-0.6099559 0.21875,-0.9316406 0.00177,-0.097595 -0.015485,-0.2171196 -0.019531,-0.3222656 z M 17.5625,8.2285161 c -0.01684,0.2785392 -0.0156,0.5564122 0.0332,0.7773434 0.04607,0.210205 0.335876,0.411855 0.474609,0.578125 0.138557,0.166269 0.328691,0.293314 0.542969,0.339844 0.14138,0.031 0.288848,0.02762 0.431641,0.002 0.142086,-0.0255 0.280988,-0.07188 0.416016,-0.123047 0.270936,-0.100968 0.539186,-0.22295 0.828124,-0.25 0.216396,-0.02085 0.437456,0.0142 0.638672,0.0957 0.201393,0.08063 0.383528,0.20712 0.533204,0.3613275 0.299176,0.308935 0.467654,0.724694 0.521484,1.146484 0.0021,0.0164 2.28e-4,0.03775 0.002,0.05469 0.01495,-0.197871 0.01868,-0.391552 -0.002,-0.554688 -0.05383,-0.42179 -0.222308,-0.8375485 -0.521484,-1.1464835 -0.149676,-0.154208 -0.331811,-0.280693 -0.533204,-0.361328 -0.201216,-0.0815 -0.422276,-0.116558 -0.638672,-0.0957 -0.288938,0.02705 -0.557188,0.149032 -0.828124,0.25 -0.135028,0.05117 -0.27393,0.09755 -0.416016,0.123047 -0.142793,0.02567 -0.290261,0.02905 -0.431641,-0.002 C 18.399,9.3773005 18.208866,9.2502555 18.070309,9.0839865 17.931579,8.9177147 17.641771,8.7160653 17.595703,8.5058599 17.577253,8.4223404 17.569339,8.3258411 17.5625,8.2285161 Z m 0.142578,6.0957029 c -0.0069,0.06741 -0.02171,0.133668 -0.02344,0.201172 -0.01641,0.591503 0.103633,0.87994 0.183593,1.466797 l 0.394532,2.880859 c 0.02013,-0.01547 0.04258,-0.0272 0.0625,-0.04297 l -0.457032,-3.33789 c -0.06369,-0.467444 -0.134507,-0.775561 -0.160156,-1.167969 z M 4.0625001,15.378906 c -0.026442,1.189867 -0.1629946,2.329995 -0.4140625,3.556641 0.029719,0.01026 0.054525,0.0172 0.083984,0.02734 0.223264,-1.214339 0.3348457,-2.369153 0.3300785,-3.583981 z m 8.9335939,1.357422 c -0.171376,0.950615 -0.52373,1.414874 -0.632813,2.078125 -0.01975,0.137192 1.11e-4,0.235072 0.04297,0.337891 0.142918,-0.605952 0.470158,-1.079611 0.617188,-2.03711 0.01292,-0.12653 0.0029,-0.254856 -0.02734,-0.378906 z m -4.419922,0.154297 c -0.030575,0.152595 -0.039825,0.308552 -0.00977,0.460937 0.06683,0.6358 0.4499761,1.265469 0.5761721,1.914063 0.01945,-0.05138 0.04608,-0.09991 0.05469,-0.154297 -0.01143,-0.759132 -0.5281979,-1.485699 -0.6210944,-2.220703 z"
           id="path3-20" /></g><g
         id="g19"
         transform="matrix(0.3249269,0,0,0.3249269,222.9767,76.046465)"><rect
           style="opacity:0.2"
           width="56"
           height="56"
           x="4"
           y="5"
           rx="16.799999"
           ry="16.799999"
           id="rect1-6" /><rect
           style="fill:#4c459c"
           width="56"
           height="56"
           x="4"
           y="4"
           rx="16.799999"
           ry="16.799999"
           id="rect2-1" /><path
           style="opacity:0.2"
           d="m 48,15 a 4,4 0 0 0 -4,4 4,4 0 0 0 0.1875,1.203126 l -6.867188,7.53125 A 8,8 0 0 0 34,27 8,8 0 0 0 26.007812,34.738282 l -9.707031,1.382812 c -0.541192,-0.689934 -1.369225,-1.09315 -2.246093,-1.09375 -1.578175,9.24e-4 -2.856702,1.2812 -2.855469,2.859374 9.23e-4,1.57665 1.278819,2.854546 2.855469,2.85547 1.164995,-6.36e-4 2.21293,-0.708528 2.648437,-1.789064 L 26.429688,37.5625 A 8,8 0 0 0 34,43 8,8 0 0 0 42,35 8,8 0 0 0 40.601562,30.484376 l 6.859376,-7.527344 A 4,4 0 0 0 48,23 4,4 0 0 0 52,19 4,4 0 0 0 48,15 Z m -23,2 a 2.9999998,2.9999998 0 0 0 -3,3 2.9999998,2.9999998 0 0 0 3,3 2.9999998,2.9999998 0 0 0 3,-3 2.9999998,2.9999998 0 0 0 -3,-3 z m 23,0 a 2,2 0 0 1 2,2 2,2 0 0 1 -2,2 2,2 0 0 1 -2,-2 2,2 0 0 1 2,-2 z m -20.28125,5.542968 -1.480468,1.089844 0.992186,1.41797 1.48047,-1.09375 z m 1.480468,2.117188 -1.476562,1.09375 1.300782,1.863282 1.480468,-1.09375 z M 34,31 a 4,4 0 0 1 4,4 4,4 0 0 1 -4,4 4,4 0 0 1 -4,-4 4,4 0 0 1 4,-4 z m -19.945312,5.457032 c 0.789849,-6.18e-4 1.430303,0.639836 1.429687,1.429686 6.18e-4,0.78985 -0.639837,1.430306 -1.429687,1.429688 -0.788325,-0.0015 -1.426399,-0.641362 -1.425782,-1.429688 -6.16e-4,-0.788324 0.637458,-1.428146 1.425782,-1.429686 z m 26.878906,3.75 -1.394532,1.39453 1.800782,1.808594 1.402344,-1.402344 z m 2.45703,2.453124 -1.398436,1.398438 2.089844,2.085938 L 45.476562,44.75 Z M 30.484376,42.875 l -1.246094,3.113282 1.789062,0.625 1.242188,-3.109376 z M 47.5,45 A 3.4999996,3.4999996 0 0 0 44,48.5 3.4999996,3.4999996 0 0 0 47.5,52 3.4999996,3.4999996 0 0 0 51,48.5 3.4999996,3.4999996 0 0 0 47.5,45 Z M 29,47 a 2.9999998,2.9999998 0 0 0 -3,3 2.9999998,2.9999998 0 0 0 3,3 2.9999998,2.9999998 0 0 0 3,-3 2.9999998,2.9999998 0 0 0 -3,-3 z"
           id="path2-5" /><path
           style="fill:#ffffff"
           d="m 48,14 a 4,4 0 0 0 -4,4 4,4 0 0 0 0.1875,1.203125 l -6.867188,7.531251 A 8,8 0 0 0 34,26 8,8 0 0 0 26.007812,33.738282 l -9.707031,1.382812 c -0.541192,-0.689934 -1.369225,-1.09315 -2.246093,-1.09375 -1.578175,9.24e-4 -2.856702,1.2812 -2.855469,2.859374 9.23e-4,1.57665 1.278819,2.854546 2.855469,2.85547 1.164995,-6.36e-4 2.21293,-0.708528 2.648437,-1.789064 L 26.429688,36.5625 A 8,8 0 0 0 34,42 8,8 0 0 0 42,34 8,8 0 0 0 40.601562,29.484376 l 6.859376,-7.527344 A 4,4 0 0 0 48,22 4,4 0 0 0 52,18 4,4 0 0 0 48,14 Z m -23,2 a 2.9999998,2.9999998 0 0 0 -3,3 2.9999998,2.9999998 0 0 0 3,3 2.9999998,2.9999998 0 0 0 3,-3 2.9999998,2.9999998 0 0 0 -3,-3 z m 23,0 a 2,2 0 0 1 2,2 2,2 0 0 1 -2,2 2,2 0 0 1 -2,-2 2,2 0 0 1 2,-2 z m -20.28125,5.542968 -1.480468,1.089844 0.992186,1.41797 1.48047,-1.09375 z m 1.480468,2.117188 -1.476562,1.09375 1.300782,1.863282 1.480468,-1.09375 z M 34,30 a 4,4 0 0 1 4,4 4,4 0 0 1 -4,4 4,4 0 0 1 -4,-4 4,4 0 0 1 4,-4 z m -19.945312,5.457032 c 0.789849,-6.18e-4 1.430303,0.639836 1.429687,1.429686 6.18e-4,0.78985 -0.639837,1.430306 -1.429687,1.429688 -0.788325,-0.0015 -1.426399,-0.641362 -1.425782,-1.429688 -6.16e-4,-0.788324 0.637458,-1.428146 1.425782,-1.429686 z m 26.878906,3.75 -1.394532,1.39453 1.800782,1.808594 1.402344,-1.402344 z m 2.45703,2.453124 -1.398436,1.398438 2.089844,2.085938 L 45.476562,43.75 Z M 30.484376,41.875 l -1.246094,3.113282 1.789062,0.625 1.242188,-3.109376 z M 47.5,44 A 3.4999996,3.4999996 0 0 0 44,47.5 3.4999996,3.4999996 0 0 0 47.5,51 3.4999996,3.4999996 0 0 0 51,47.5 3.4999996,3.4999996 0 0 0 47.5,44 Z M 29,46 a 2.9999998,2.9999998 0 0 0 -3,3 2.9999998,2.9999998 0 0 0 3,3 2.9999998,2.9999998 0 0 0 3,-3 2.9999998,2.9999998 0 0 0 -3,-3 z"
           id="path3-5" /><path
           style="opacity:0.1;fill:#ffffff"
           d="M 20.800781,4 C 11.493581,4 4,11.493581 4,20.800781 v 1 C 4,12.493581 11.493581,5 20.800781,5 H 43.199219 C 52.506419,5 60,12.493581 60,21.800781 v -1 C 60,11.493581 52.506419,4 43.199219,4 Z"
           id="path4-47" /></g></g></g></svg>
